<?xml version="1.0" encoding="UTF-8"?>
<svg id="Capa_1" xmlns="http://www.w3.org/2000/svg" version="1.1" viewBox="0 0 466.2 112.94" xmlns:c2pa="http://c2pa.org/manifest"><metadata><c2pa:manifest>AAAWgmp1bWIAAAAeanVtZGMycGEAEQAQgAAAqgA4m3EDYzJwYQAAABZcanVtYgAAAEdqdW1kYzJtYQARABCAAACqADibcQN1cm46YzJwYTo5NDEzMDgxMC05MDA0LTQ1MTctYmJlZC04Y2E4ZjgzMTY2NjcAAAADl2p1bWIAAAApanVtZGMyYXMAEQAQgAAAqgA4m3EDYzJwYS5hc3NlcnRpb25zAAAAALxqdW1iAAAARGp1bWRjYm9yABEAEIAAAKoAOJtxE2MycGEuaW5ncmVkaWVudC52MwAAAAAYYzJzaOyoB6j8ZUpBGnuYeyVFFwMAAABwY2JvcqNpZGM6Zm9ybWF0bWltYWdlL3N2Zyt4bWxqaW5zdGFuY2VJRHgseG1wOmlpZDpkMzg3YmQ3YS1kYWEwLTRjNjAtOGNhZC0wMDc1MTdjZGJhZjJscmVsYXRpb25zaGlwaHBhcmVudE9mAAAB4mp1bWIAAABBanVtZGNib3IAEQAQgAAAqgA4m3ETYzJwYS5hY3Rpb25zLnYyAAAAABhjMnNokvDldDu+nJCHmQynQwCpGQAAAZljYm9yomdhY3Rpb25zgqJmYWN0aW9ua2MycGEub3BlbmVkanBhcmFtZXRlcnOha2luZ3JlZGllbnRzgaJjdXJseC1zZWxmI2p1bWJmPWMycGEuYXNzZXJ0aW9ucy9jMnBhLmluZ3JlZGllbnQudjNkaGFzaFggxHlfNHTP7AjLSNBoeC3vIWi7jwn3g+HT+jsfsBjYRXakZmFjdGlvbngdY29tLmFudGhyb3BpYy5jbGF1ZGUucHJvdmlkZWRqcGFyYW1ldGVyc6F4H2NvbS5hbnRocm9waWMub3JpZ2luLWNvbmZpZGVuY2VndW5rbm93bmtkZXNjcmlwdGlvbnhmQ2xhdWRlIHByb3ZpZGVkIHRoaXMgZmlsZSBhdCB0aGUgcmVxdWVzdCBvZiBhIHVzZXIgYW5kIG1heSBoYXZlIGNyZWF0ZWQgb3IgbW9kaWZpZWQgdGhlIGZpbGUgY29udGVudHMubXNvZnR3YXJlQWdlbnShZG5hbWVmQ2xhdWRlcmFsbEFjdGlvbnNJbmNsdWRlZPUAAADIanVtYgAAAEBqdW1kY2JvcgARABCAAACqADibcRNjMnBhLmhhc2guZGF0YQAAAAAYYzJzaDi6aLAmP9WbBVlIQdc7bRgAAACAY2JvcqVjYWxnZnNoYTI1NmNwYWRNAAAAAAAAAAAAAAAAAGRoYXNoWCCngqgBfC2BGRwxNe+OanZVpO14U8NYlV60DBsfE195bmRuYW1lbmp1bWJmIG1hbmlmZXN0amV4Y2x1c2lvbnOBomVzdGFydBjDZmxlbmd0aBkeBAAAAj5qdW1iAAAAJ2p1bWRjMmNsABEAEIAAAKoAOJtxA2MycGEuY2xhaW0udjIAAAACD2Nib3KlY2FsZ2ZzaGEyNTZpc2lnbmF0dXJleE1zZWxmI2p1bWJmPS9jMnBhL3VybjpjMnBhOjk0MTMwODEwLTkwMDQtNDUxNy1iYmVkLThjYThmODMxNjY2Ny9jMnBhLnNpZ25hdHVyZWppbnN0YW5jZUlEeCx4bXA6aWlkOjIyYTBiYzY0LTU3YTctNGNjZC1iODViLTIxODU5MjhiYzQyYnJjcmVhdGVkX2Fzc2VydGlvbnODomN1cmx4LXNlbGYjanVtYmY9YzJwYS5hc3NlcnRpb25zL2MycGEuaW5ncmVkaWVudC52M2RoYXNoWCDEeV80dM/sCMtI0Gh4Le8haLuPCfeD4dP6Ox+wGNhFdqJjdXJseCpzZWxmI2p1bWJmPWMycGEuYXNzZXJ0aW9ucy9jMnBhLmFjdGlvbnMudjJkaGFzaFggyRH+4z6+M2rGucxbFT20Fp/gzOW4H0LQ9TsdAeWnxeqiY3VybHgpc2VsZiNqdW1iZj1jMnBhLmFzc2VydGlvbnMvYzJwYS5oYXNoLmRhdGFkaGFzaFgg0s1vpamB8vsdcWshT5R8QJ8uFfdumPq8dxe/g9ZPhMl0Y2xhaW1fZ2VuZXJhdG9yX2luZm+jZG5hbWVvQW50aHJvcGljIEZpbGVzZ3ZlcnNpb25lMS4wLjBrc3BlY1ZlcnNpb25lMi40LjAAABA4anVtYgAAAChqdW1kYzJjcwARABCAAACqADibcQNjMnBhLnNpZ25hdHVyZQAAABAIY2JvctKEWQISogEmGCFZAgowggIGMIIBjaADAgECAhRA5aAK7sI50L64g/oGQgU9Z1UTADAKBggqhkjOPQQDAzBJMRcwFQYDVQQKEw5BbnRocm9waWMsIFBCQzEuMCwGA1UEAxMlQW50aHJvcGljIENvbnRlbnQgQ3JlZGVudGlhbHMgUm9vdCBDQTAeFw0yNjA4MDcxODQzNTZaFw0yODA4MDYxOTQzNTZaMEQxFzAVBgNVBAoTDkFudGhyb3BpYywgUEJDMSkwJwYDVQQDEyBBbnRocm9waWMgQ2xhdWRlIENvbnRlbnQgU2lnbmluZzBZMBMGByqGSM49AgEGCCqGSM49AwEHA0IABJh6CmvLUBgFFNU0vUKlOVtE6djd17L5SuwX0LemFisBM3dkd/3cyjxFA3Qo5S46fX0/ihY0VZ7mfb9KF703t5OjWDBWMA4GA1UdDwEB/wQEAwIHgDAVBgNVHSUEDjAMBgorBgEEAYPoXgIBMAwGA1UdEwEB/wQCMAAwHwYDVR0jBBgwFoAUzlHiBIFOZFsj+OPEz5o+nMHXXMIwCgYIKoZIzj0EAwMDZwAwZAIwMXMdFJ4BetLLVY7ORuE9noqbbAZOZn/aArXyTwFAZfKrPzxF2vPoJNf1+UCdg1XGAjBwX1zd9WGqYkqmL5SFqw1QySjr1zJfpJM9+1rdDwSPLMOPOjKuiXjoU/pUUeG9RwmhY3BhZFkNngAAAAAAAAAAAAAAAAAAAAAAAAAAAAAAAAAAAAAAAAAAAAAAAAAAAAAAAAAAAAAAAAAAAAAAAAAAAAAAAAAAAAAAAAAAAAAAAAAAAAAAAAAAAAAAAAAAAAAAAAAAAAAAAAAAAAAAAAAAAAAAAAAAAAAAAAAAAAAAAAAAAAAAAAAAAAAAAAAAAAAAAAAAAAAAAAAAAAAAAAAAAAAAAAAAAAAAAAAAAAAAAAAAAAAAAAAAAAAAAAAAAAAAAAAAAAAAAAAAAAAAAAAAAAAAAAAAAAAAAAAAAAAAAAAAAAAAAAAAAAAAAAAAAAAAAAAAAAAAAAAAAAAAAAAAAAAAAAAAAAAAAAAAAAAAAAAAAAAAAAAAAAAAAAAAAAAAAAAAAAAAAAAAAAAAAAAAAAAAAAAAAAAAAAAAAAAAAAAAAAAAAAAAAAAAAAAAAAAAAAAAAAAAAAAAAAAAAAAAAAAAAAAAAAAAAAAAAAAAAAAAAAAAAAAAAAAAAAAAAAAAAAAAAAAAAAAAAAAAAAAAAAAAAAAAAAAAAAAAAAAAAAAAAAAAAAAAAAAAAAAAAAAAAAAAAAAAAAAAAAAAAAAAAAAAAAAAAAAAAAAAAAAAAAAAAAAAAAAAAAAAAAAAAAAAAAAAAAAAAAAAAAAAAAAAAAAAAAAAAAAAAAAAAAAAAAAAAAAAAAAAAAAAAAAAAAAAAAAAAAAAAAAAAAAAAAAAAAAAAAAAAAAAAAAAAAAAAAAAAAAAAAAAAAAAAAAAAAAAAAAAAAAAAAAAAAAAAAAAAAAAAAAAAAAAAAAAAAAAAAAAAAAAAAAAAAAAAAAAAAAAAAAAAAAAAAAAAAAAAAAAAAAAAAAAAAAAAAAAAAAAAAAAAAAAAAAAAAAAAAAAAAAAAAAAAAAAAAAAAAAAAAAAAAAAAAAAAAAAAAAAAAAAAAAAAAAAAAAAAAAAAAAAAAAAAAAAAAAAAAAAAAAAAAAAAAAAAAAAAAAAAAAAAAAAAAAAAAAAAAAAAAAAAAAAAAAAAAAAAAAAAAAAAAAAAAAAAAAAAAAAAAAAAAAAAAAAAAAAAAAAAAAAAAAAAAAAAAAAAAAAAAAAAAAAAAAAAAAAAAAAAAAAAAAAAAAAAAAAAAAAAAAAAAAAAAAAAAAAAAAAAAAAAAAAAAAAAAAAAAAAAAAAAAAAAAAAAAAAAAAAAAAAAAAAAAAAAAAAAAAAAAAAAAAAAAAAAAAAAAAAAAAAAAAAAAAAAAAAAAAAAAAAAAAAAAAAAAAAAAAAAAAAAAAAAAAAAAAAAAAAAAAAAAAAAAAAAAAAAAAAAAAAAAAAAAAAAAAAAAAAAAAAAAAAAAAAAAAAAAAAAAAAAAAAAAAAAAAAAAAAAAAAAAAAAAAAAAAAAAAAAAAAAAAAAAAAAAAAAAAAAAAAAAAAAAAAAAAAAAAAAAAAAAAAAAAAAAAAAAAAAAAAAAAAAAAAAAAAAAAAAAAAAAAAAAAAAAAAAAAAAAAAAAAAAAAAAAAAAAAAAAAAAAAAAAAAAAAAAAAAAAAAAAAAAAAAAAAAAAAAAAAAAAAAAAAAAAAAAAAAAAAAAAAAAAAAAAAAAAAAAAAAAAAAAAAAAAAAAAAAAAAAAAAAAAAAAAAAAAAAAAAAAAAAAAAAAAAAAAAAAAAAAAAAAAAAAAAAAAAAAAAAAAAAAAAAAAAAAAAAAAAAAAAAAAAAAAAAAAAAAAAAAAAAAAAAAAAAAAAAAAAAAAAAAAAAAAAAAAAAAAAAAAAAAAAAAAAAAAAAAAAAAAAAAAAAAAAAAAAAAAAAAAAAAAAAAAAAAAAAAAAAAAAAAAAAAAAAAAAAAAAAAAAAAAAAAAAAAAAAAAAAAAAAAAAAAAAAAAAAAAAAAAAAAAAAAAAAAAAAAAAAAAAAAAAAAAAAAAAAAAAAAAAAAAAAAAAAAAAAAAAAAAAAAAAAAAAAAAAAAAAAAAAAAAAAAAAAAAAAAAAAAAAAAAAAAAAAAAAAAAAAAAAAAAAAAAAAAAAAAAAAAAAAAAAAAAAAAAAAAAAAAAAAAAAAAAAAAAAAAAAAAAAAAAAAAAAAAAAAAAAAAAAAAAAAAAAAAAAAAAAAAAAAAAAAAAAAAAAAAAAAAAAAAAAAAAAAAAAAAAAAAAAAAAAAAAAAAAAAAAAAAAAAAAAAAAAAAAAAAAAAAAAAAAAAAAAAAAAAAAAAAAAAAAAAAAAAAAAAAAAAAAAAAAAAAAAAAAAAAAAAAAAAAAAAAAAAAAAAAAAAAAAAAAAAAAAAAAAAAAAAAAAAAAAAAAAAAAAAAAAAAAAAAAAAAAAAAAAAAAAAAAAAAAAAAAAAAAAAAAAAAAAAAAAAAAAAAAAAAAAAAAAAAAAAAAAAAAAAAAAAAAAAAAAAAAAAAAAAAAAAAAAAAAAAAAAAAAAAAAAAAAAAAAAAAAAAAAAAAAAAAAAAAAAAAAAAAAAAAAAAAAAAAAAAAAAAAAAAAAAAAAAAAAAAAAAAAAAAAAAAAAAAAAAAAAAAAAAAAAAAAAAAAAAAAAAAAAAAAAAAAAAAAAAAAAAAAAAAAAAAAAAAAAAAAAAAAAAAAAAAAAAAAAAAAAAAAAAAAAAAAAAAAAAAAAAAAAAAAAAAAAAAAAAAAAAAAAAAAAAAAAAAAAAAAAAAAAAAAAAAAAAAAAAAAAAAAAAAAAAAAAAAAAAAAAAAAAAAAAAAAAAAAAAAAAAAAAAAAAAAAAAAAAAAAAAAAAAAAAAAAAAAAAAAAAAAAAAAAAAAAAAAAAAAAAAAAAAAAAAAAAAAAAAAAAAAAAAAAAAAAAAAAAAAAAAAAAAAAAAAAAAAAAAAAAAAAAAAAAAAAAAAAAAAAAAAAAAAAAAAAAAAAAAAAAAAAAAAAAAAAAAAAAAAAAAAAAAAAAAAAAAAAAAAAAAAAAAAAAAAAAAAAAAAAAAAAAAAAAAAAAAAAAAAAAAAAAAAAAAAAAAAAAAAAAAAAAAAAAAAAAAAAAAAAAAAAAAAAAAAAAAAAAAAAAAAAAAAAAAAAAAAAAAAAAAAAAAAAAAAAAAAAAAAAAAAAAAAAAAAAAAAAAAAAAAAAAAAAAAAAAAAAAAAAAAAAAAAAAAAAAAAAAAAAAAAAAAAAAAAAAAAAAAAAAAAAAAAAAAAAAAAAAAAAAAAAAAAAAAAAAAAAAAAAAAAAAAAAAAAAAAAAAAAAAAAAAAAAAAAAAAAAAAAAAAAAAAAAAAAAAAAAAAAAAAAAAAAAAAAAAAAAAAAAAAAAAAAAAAAAAAAAAAAAAAAAAAAAAAAAAAAAAAAAAAAAAAAAAAAAAAAAAAAAAAAAAAAAAAAAAAAAAAAAAAAAAAAAAAAAAAAAAAAAAAAAAAAAAAAAAAAAAAAAAAAAAAAAAAAAAAAAAAAAAAAAAAAAAAAAAAAAAAAAAAAAAAAAAAAAAAAAAAAAAAAAAAAAAAAAAAAAAAAAAAAAAAAAAAAAAAAAAAAAAAAAAAAAAAAAAAAAAAAAAAAAAAAAAAAAAAAAAAAAAAAAAAAAAAAAAAAAAAAAAAAAAAAAAAAAAAAAAAAAAAAAAAAAAAAAAAAAAAAAAAAAAAAAAAAAAAAAAAAAAAAAAAAAAAAAAAAAAAAAAAAAAAAAAAAAAAAAAAAAAAAAAAAAAAAAAAAAAAAAAAAAAAAAAAAAAAAAAAAAAAAAAAAAAAAAAAAAAAAAAAAAAAAAAAAAAAAAAAAAAAAAAAAAAAAAAAAAAAAAAAAAAAAAAAAAAAAAAAAAAAAAAAAAAAAAAAAAAAAAAAAAAAAAAAAAAAAAAAAAAAAAAAAAAAAAAAAAAAAAAAAAAAAAAAAAAAAAAAAAAAAAAAAAAAAAAAAAAAAAAAAAAAAAAAAAAAAAAAAAAAAAAAAAAAAAAAAAAAAAAAAAAAAAAAAAAAAAAAAAAAAAAAAAAAAAAAAAAAAAAAAAAAAAAAAAAAAAAAAAAAAAAAAAAAAAAAAAAAAAAAAAAAAAAAAAAAAAAAAAAAAAAAAAAAAAAAAAAAAAAAAAAAAAAAAAAAAAAAAAAAAAAAAAAAAAAAAAAAAAAAAAAAAAAAAAAAAAAAAAAAAAAAAAAAAAAAAAAAAAAAAAAAAAAAAAAAAAAAAAAAAAAAAAAAAAAAAAAAAAAAAAAAAAAAAAAAAAAAAAAAAAAAAAAAAAAAAAAAAAAAAAAAAAAAAAAAAAAAAAAAAAAAAAAAAAAAAAAAAAAAAAAAAAAAAAAAAAAAAAAAAAAAAAAAAAAAAAAAAAAAAAAAAAAAAAAAAAAAAAAAAAAAAAAAAAAAAAAAAAAAAAAAAAAAAAAAAAAAAAAAAAAAAAAAAAAAAAAAAAAAAAAAAAAAAAAAAAAAAAAAAAAAAAAAAAAAAAAAAAAAAAAAAAAAAAAAAAAAAAAAAAAAAAAAAAAAAAAAAAAAAAAAAAAAAAAAAAAAAAAAAAAAAAAAAAAAAAAAAAAAAAAAAAAAAAAAAAAAAAAAAAAAAAAAAAAAAAAAAAAAAAAAAAAAAAAAAAAAAAAAAAAAAAAAAAAAAAAAAAAAAAAAAAAAAAAAAAAAAAAAAAAAAAAAAAAAAAAAAAAAAAAAAAAAAAAAAAAAAAAAAAAAAAAAAAAAAAAAAAAAAAAAAAAAAAAAAAAAAAAAAAAAAAAAAAAAAAAAAAAAAAAAAAAAAAPZYQIWPj1OGAAfrY5W7xrlSSROBS//t82/+vdiakxJ0cy5YHOE1YB8NI1rqzVmFZhziT8oLfjD+3C+FsH77r7qlWAc=</c2pa:manifest></metadata>
  <!-- Generator: Adobe Illustrator 30.6.0, SVG Export Plug-In . SVG Version: 2.1.4 Build 109)  -->
  <defs>
    <style>
      .st0 {
        fill: #646363;
      }

      .st1 {
        fill: #05549a;
      }
    </style>
  </defs>
  <path class="st0" d="M139.28,111.51s39.55-21.24,119.36-4.94c0,0,51.3,13.05,91.75-9.01,0,0-24.34,24.03-92.68,12.01,0,0-59.29-13.42-118.43,1.94Z"/>
  <g>
    <path class="st0" d="M372.58,101.1l-1.28.8c-.71-.75-1.56-1.32-2.55-1.7-.99-.38-2.09-.58-3.28-.58-1.3,0-2.5.25-3.61.76-1.11.51-1.97,1.18-2.58,2.04-.61.85-.92,1.81-.92,2.88,0,1.61.68,2.95,2.04,4.03,1.36,1.08,3.09,1.62,5.16,1.62,2.28,0,4.19-.72,5.73-2.17l1.28.79c-.81.84-1.82,1.49-3.04,1.95-1.22.46-2.57.69-4.07.69-2.85,0-5.1-.77-6.75-2.31-1.38-1.3-2.07-2.86-2.07-4.71,0-1.93.84-3.56,2.51-4.88,1.67-1.32,3.77-1.98,6.29-1.98,1.52,0,2.89.24,4.12.73,1.23.49,2.23,1.17,3.01,2.05Z"/>
    <path class="st0" d="M380.4,98.65h9.34v1.29h-7.71v4.14h7.65v1.3h-7.65v5.19h7.65v1.29h-9.27v-13.2Z"/>
    <path class="st0" d="M397.1,111.85v-13.2h.36l10.85,10.12v-10.12h1.61v13.2h-.36l-10.76-9.99v9.99h-1.68Z"/>
    <path class="st0" d="M416.8,99.94v-1.29h8.93v1.29h-3.64v11.91h-1.66v-11.91h-3.63Z"/>
    <path class="st0" d="M432.63,98.65h9.34v1.29h-7.71v4.14h7.64v1.3h-7.64v5.19h7.64v1.29h-9.27v-13.2Z"/>
    <path class="st0" d="M449.41,98.65h3.25c1.81,0,3.04.06,3.68.18.97.18,1.75.57,2.36,1.16.61.59.91,1.32.91,2.18,0,.72-.21,1.35-.63,1.9-.42.54-1.01.96-1.79,1.23-.78.28-1.85.42-3.21.43l5.86,6.13h-2.02l-5.86-6.13h-.92v6.13h-1.63v-13.2ZM451.04,99.94v4.49l2.81.02c1.09,0,1.89-.08,2.41-.25.53-.17.93-.43,1.22-.8.29-.37.44-.78.44-1.24s-.15-.85-.45-1.21c-.29-.36-.69-.63-1.17-.78-.48-.15-1.28-.23-2.4-.23h-2.87Z"/>
  </g>
  <g>
    <g>
      <path class="st1" d="M49.7,91.86c.52.02.73-.14.96-.25,5.56-2.86,9.85-6.51,13.04-10.84,2.63-3.58,3.35-7.31,1.67-11.22-1.36-3.17-5.09-4.98-9.52-4.66-1.84.13-3.39.72-4.69,1.67.1.08.12.11.15.11.25.03.49.06.74.08,3.03.23,4.93,1.43,5.81,3.5.4.92.62,1.87.63,2.83.06,4.5-1.7,8.71-4.14,12.79-1.24,2.08-2.81,4.03-4.65,5.98Z"/>
      <path class="st1" d="M84.92,107.71c-.15-.13-2.24-1.88-7.89-3.36-5.17-4.28-5.03-9.51-5.25-14.71-2.98,4.61-6.9,8.75-11.46,12.68-.85-.02-1.72-.03-2.62-.03-.73,0-1.43,0-2.13.02,4.9-3.92,9.17-8.17,12.31-12.99,2.46-3.78,4.16-7.7,3.59-11.96-.2-1.48-.7-2.89-1.78-4.18.24,1.46.21,2.89-.31,4.31-1.15,3.15-3.45,5.87-6.12,8.44-6.35,6.12-13.4,11.25-22.03,15.62-1.61.81-3.91,2.33-5.97,3.51-4.04,1.25-5.8,2.47-5.94,2.58-.51.37-.62,1.07-.26,1.58.36.51,1.07.63,1.59.27.07-.05,7.22-4.92,27.04-4.92s25.68,4.81,25.73,4.86c.22.19.48.28.75.28.32,0,.64-.13.86-.39.41-.48.36-1.2-.11-1.61Z"/>
    </g>
    <g>
      <path class="st1" d="M62.26,20.23c2.08-2.79,4.44-5.29,7.23-7.37,1.53-1.14,3.13-2.14,4.87-2.89,1.83-.79,3.59-.79,5.26-.06,2.15.93,2.14,3.33.05,4.91-2.38,1.8-5.07,2.41-7.8,2.96-3.22.64-6.48,1.08-9.63,2.46Z"/>
      <g>
        <path class="st1" d="M114.15,38.12c-1.65-1.3-3.29-2.57-5.11-3.57-4.44-2.44-9.2-3.72-14.09-4.6-9.69-1.74-19.23-1.01-28.64,1.93-3.32,1.04-6.38,2.62-9.02,5.04-.72.65-1.34,1.4-1.85,2.24-1.75,2.85-1.04,5.63,1.84,7.2,2.87,1.57,5.96,1.66,9.08,1.38,5.9-.53,11.56-2.09,16.99-4.59.12-.06.26-.06.44,0-1.04,1.04-2.27,1.79-3.49,2.5-6.05,3.53-12.41,6.14-19.34,6.9-2.45.27-4.91.23-7.27-.63-5.22-1.89-7.64-6.68-6.24-12.37,1.29-5.2,4.59-8.67,8.84-11.23,5.47-3.3,11.46-4.64,17.67-5.13,7.19-.56,14.25.25,21.17,2.33,5.85,1.75,11.3,4.39,15.9,8.74,1.2,1.14,2.27,2.4,3.12,3.89Z"/>
        <path class="st1" d="M45.15,61.73c-1.71.61-3.49.81-5.26,1-7.61.79-15.19.68-22.69-1.06-4.11-.95-8.08-2.37-11.42-5.22C2.09,53.3-.29,49.36.03,44.09c.32-5.22,3.72-9.47,8.77-11.03,4.58-1.42,9.06-.82,13.43,1,4.69,1.95,8.69,5.1,12.59,8.4,3.89,3.29,7.6,6.84,11.8,9.7,3.01,2.05,6.2,3.58,9.82,3.88.14.01.27.06.4.17-2.76.65-5.5.56-8.23-.19-4.27-1.17-7.91-3.63-11.46-6.29-3.59-2.69-7-5.66-10.82-8-3.47-2.13-7.12-3.52-11.21-3.08-.64.07-1.29.16-1.91.33-5.33,1.47-7.18,6.85-4,11.65,1.43,2.16,3.39,3.64,5.54,4.86,4.79,2.74,10,4.07,15.32,4.96,4.99.83,10.02,1.17,15.09,1.27Z"/>
        <path class="st1" d="M91.58,65.74c4.78-.91,9.24-2.66,13.41-5.26,1.5-.93,2.92-1.99,4.1-3.36,1.81-2.1,2.86-4.49,1.76-7.34-1.08-2.8-3.4-3.57-5.97-3.73-2.2-.14-4.29.47-6.34,1.24-4.35,1.65-8.37,4.1-12.63,5.98-6.72,2.98-13.51,5.77-20.67,7.34-4.43.98-8.89,1.56-13.39.37-.24-.06-.48-.15-.72-.24-.05-.02-.07-.11-.09-.15,9.69-.36,18.19-4.79,26.76-8.99,5.37-2.63,10.46-5.85,15.75-8.65,4.1-2.17,8.38-3.75,13.04-3.63,3.86.1,7.32,1.35,9.88,4.62,3.93,5.03,2.88,12.69-2.22,16.68-3.03,2.37-6.5,3.56-10.14,4.35-3.95.86-7.93,1-11.94.86-.2,0-.39-.05-.59-.08Z"/>
        <path class="st1" d="M104.33,35.82c-.89-.09-1.78-.2-2.67-.27-6.32-.46-12.18,1.35-17.87,4.07-4.54,2.17-9.22,3.93-14.15,4.82-2.31.42-4.66.49-7,.31-1.48-.11-2.81-.73-3.33-2.32-.51-1.58.14-2.92,1.19-4.05,1.65-1.77,3.74-2.75,5.91-3.46,7.9-2.57,15.96-3.53,24.21-2.55,4.35.51,8.62,1.29,12.75,2.84.34.13.66.27,1,.41-.01.07-.02.14-.03.21Z"/>
        <path class="st1" d="M46.25,58.54c-3.41.16-6.79-.05-10.16-.36-5.07-.47-10.09-1.25-14.94-2.94-3.2-1.12-6.28-2.53-8.7-5.14-1.45-1.57-2.57-3.39-1.7-5.66.84-2.2,2.78-2.72,4.81-2.87,4.27-.33,7.85,1.6,11.29,3.95,1.69,1.16,3.32,2.44,4.94,3.72,4.54,3.58,9.07,7.19,14.47,9.32Z"/>
        <path class="st1" d="M54.8,24.45c.64-2.42,1.81-4.58,2.99-6.7,2.24-4.04,5.14-7.51,8.71-10.27,5.59-4.31,11.8-6.14,18.68-4.92,2.48.44,4.62,1.6,6.24,3.77,2.21,2.96,1.5,7.54-1.59,9.94-2.54,1.98-5.48,2.69-8.49,3.12-1.85.26-3.71.59-5.59.54-.27,0-.54,0-.83-.1,2.28-.7,4.38-1.73,6.3-3.16,1.31-.97,2.43-2.15,3.23-3.65,1.25-2.36.35-4.68-2.1-5.56-2.79-1-5.55-.68-8.29.15-4.69,1.43-8.49,4.43-12.04,7.87-2.76,2.67-5.02,5.78-7.22,8.96Z"/>
        <path class="st1" d="M65.85,64.03c4.42-.71,8.49-1.81,12.45-3.37,5.82-2.3,11.31-5.38,16.91-8.2,2.48-1.25,4.98-2.44,7.72-2.89,1.22-.2,2.44-.22,3.63.25,1.3.52,1.78,1.48,1.39,2.91-.31,1.14-.99,2.03-1.83,2.79-3.34,3.07-7.32,4.73-11.52,5.81-9.27,2.38-18.7,3.1-28.21,2.82-.09,0-.19-.04-.53-.11Z"/>
        <path class="st1" d="M36.14,15.62c-1.27-3.87-1.36-7.7.92-11.23C39.23,1.04,42.37-.42,46.15.1c4.93.69,8.02,4.6,8.19,10.19.14,4.38-1.12,8.38-3.05,12.19-1.69,3.34-3.62,6.54-4.81,10.16-.46,1.42-.7,2.88-1.09,4.33-.59-3.88-.41-7.72.42-11.55.64-2.92,1.89-5.63,2.54-8.55.38-1.7.52-3.4.43-5.14-.12-2.45-.9-4.55-3.17-5.57-2.32-1.04-4.47-.41-6.35,1.23-1.83,1.6-2.65,3.78-2.85,6.24-.05.65,0,1.3,0,1.95-.09.01-.18.02-.28.03Z"/>
        <path class="st1" d="M23.5,30.81c-1.57-.45-2.92-1.37-4.14-2.48-2.35-2.15-4.12-4.72-4.61-8.08-.5-3.45,1.06-6.44,4.17-7.69,4.03-1.61,7.85-.77,11.28,1.78,4.84,3.6,7.96,8.59,9.65,14.58,1.08,3.85,2.05,7.75,3.06,11.62.47,1.8,1.13,3.52,1.81,5.25-1.13-1-1.84-2.32-2.52-3.66-1.61-3.18-2.63-6.64-4.01-9.93-1.85-4.39-3.9-8.66-7.31-11.97-2.15-2.08-4.61-3.45-7.63-3.08-2.39.29-3.81,2.02-3.86,4.57-.05,3.02,1.19,5.48,3.08,7.61.38.43.88.75,1.32,1.11-.1.12-.19.23-.29.35Z"/>
        <path class="st1" d="M41.28,43.52c-6.94-4.31-13.01-9.62-17.2-17.07-.61-1.09-1.07-2.26-1.1-3.57-.05-2.12,1.28-3.19,3.18-2.52,1.46.51,2.51,1.64,3.55,2.75,2.59,2.77,4.18,6.22,5.7,9.71,1.14,2.61,2.23,5.24,3.73,7.66.66,1.06,1.45,2,2.14,3.05Z"/>
        <path class="st1" d="M42.57,28.04c-1.45-2.86-2.52-5.85-3.03-9.04-.28-1.74-.4-3.5-.25-5.27.17-1.86.97-3.35,2.37-4.47,1.79-1.45,3.85-.49,4.25,1.91.45,2.72-.25,5.25-1.04,7.76-.93,2.98-2.05,5.9-2.31,9.11Z"/>
      </g>
    </g>
  </g>
  <g>
    <path class="st1" d="M184.64,75.39c.14-.91.43-1.61.85-2.11.34-.56.95-1.06,1.83-1.48.88-.43,2.09-.63,3.65-.63s2.86.11,3.77.32c.91.22,1.77.46,2.54.74.77.29,1.62.53,2.59.75.93.2,2.19.31,3.73.31s2.84.11,3.68.32c.84.2,1.48.45,1.9.72.35.29.59.63.74,1.06-.15.42-.39.76-.74,1.05-.42.28-1.06.52-1.9.73-.84.21-2.07.33-3.68.33s-2.8-.12-3.73-.33c-.97-.22-1.82-.45-2.59-.73-.77-.29-1.63-.53-2.54-.74-.91-.2-2.17-.31-3.77-.31h-6.33Z"/>
    <path class="st1" d="M326.24,75.39c.14-.91.42-1.61.85-2.11.36-.56.96-1.06,1.84-1.48.88-.43,2.08-.63,3.63-.63,1.62,0,2.89.11,3.79.32.92.22,1.77.46,2.54.74.77.29,1.63.53,2.58.75.96.2,2.2.31,3.75.31s2.85.11,3.7.32c.83.2,1.46.45,1.88.72.36.29.59.63.74,1.06-.15.42-.38.76-.74,1.05-.42.28-1.05.52-1.88.73-.85.21-2.08.33-3.7.33s-2.79-.12-3.75-.33c-.95-.22-1.81-.45-2.58-.73-.76-.29-1.62-.53-2.54-.74-.9-.2-2.16-.31-3.79-.31h-6.31Z"/>
    <path class="st1" d="M178.32,85.54c.34-5.26,1.04-11.59,2.09-18.96.43-2.81,1.07-6,1.97-9.58.86-3.59,1.91-7.28,3.11-11.08.69-2.38,1.48-4.79,2.35-7.21.88-2.43,1.74-4.72,2.59-6.91,1.76-4.49,3.44-8.24,5.11-11.26,1.65-3.03,2.93-4.54,3.83-4.54s2.21,1.48,3.84,4.42c1.66,2.95,3.37,6.62,5.12,10.96.77,1.89,1.55,3.87,2.33,5.94.76,2.08,1.5,4.17,2.2,6.27,1.27,3.87,2.4,7.64,3.43,11.33,1.03,3.69,1.7,6.87,2.05,9.54,1.07,7.37,1.75,14.39,2.12,21.06h-8.42c-.37-3.87-1.06-9.48-2.11-16.86-.29-2.18-.71-4.53-1.27-7.05-.56-2.52-1.19-5.14-1.89-7.8-.5-1.75-.99-3.5-1.47-5.26-.49-1.75-1.03-3.45-1.58-5.06-1.26-4.15-2.5-7.66-3.68-10.55-1.2-2.87-2.04-4.31-2.53-4.31s-1.37,1.44-2.59,4.31c-1.24,2.89-2.52,6.4-3.85,10.55-.56,1.6-1.1,3.31-1.63,5.06-.53,1.76-1.04,3.51-1.53,5.26-.7,2.66-1.35,5.28-1.96,7.8-.59,2.53-1.04,4.87-1.3,7.05-1.06,7.38-1.77,12.99-2.13,16.86h-4.19Z"/>
    <path class="st1" d="M226.14,83.44V16.01h6.32l29.51,48.47V18.12h-2.1v-2.11h10.53v2.11h-2.12v67.43h-6.32l-29.51-48.46v46.36h2.12v2.1h-10.54v-2.1h2.11Z"/>
    <path class="st1" d="M291.04,86.39c-1.34-.06-2.67-.13-4-.21-1.32-.07-2.58-.18-3.68-.32-1.13-.06-2.12-.14-2.97-.21-.83-.07-1.51-.11-1.98-.11-1.77,0-2.97-.03-3.64-.11-.67-.06-1-.31-1-.73,0-.14,0-.31.05-.48.03-.18.09-.44.16-.79.07-.3.12-.6.16-.96.02-.35.05-.73.05-1.15V18.12c0-.62.39-1.1,1.16-1.38.76-.27,1.65-.48,2.63-.62.43-.08.86-.11,1.31-.11h1.2c.52,0,4.24-.02,7.85,1.34,3.62,1.37,6.52,3.53,10.73,6.69,4.43,3.37,7.86,8.76,11.6,14.51,3.76,5.77,5.66,13.01,5.66,21.72,0,9.26-2.02,15.7-6.06,19.27-4.04,3.58-8.45,5.69-13.22,6.32-1.06.14-2.08.25-3.06.32-.99.08-1.96.11-2.96.11v.1ZM282.7,21.1c-.03.16-.08,1.64-.08,1.23v54.78c0,.92.43,1.5,1.31,1.73.85.25,1.85.38,2.87.38.16,0,.47.06.96.2.49.15,1.09.29,1.8.43.62.14,1.35.28,2.21.43.84.15,1.72.21,2.63.21.55,0,1.12-.04,1.68-.11.57-.07,1.11-.17,1.7-.3,2.52-.65,4.84-2.37,6.93-5.23,2.12-2.85,3.17-7.71,3.17-14.58,0-7.24-1.21-13.43-3.63-18.61-2.43-5.15-5.11-9.39-8.07-12.69-2.59-2.95-5.04-5.14-7.32-6.58-2.28-1.44-3.67-2.16-4.15-2.16s-1.84-.03-2.02.88Z"/>
    <path class="st1" d="M319.91,85.54c.34-5.26,1.05-11.59,2.11-18.96.42-2.81,1.06-6,1.94-9.58.89-3.59,1.93-7.28,3.12-11.08.69-2.38,1.49-4.79,2.37-7.21.87-2.43,1.73-4.72,2.57-6.91,1.77-4.49,3.45-8.24,5.11-11.26,1.65-3.03,2.94-4.54,3.85-4.54s2.2,1.48,3.84,4.42c1.66,2.95,3.36,6.62,5.12,10.96.76,1.89,1.54,3.87,2.32,5.94.76,2.08,1.51,4.17,2.2,6.27,1.26,3.87,2.4,7.64,3.42,11.33,1.01,3.69,1.72,6.87,2.06,9.54,1.05,7.37,1.77,14.39,2.12,21.06h-8.43c-.36-3.87-1.06-9.48-2.11-16.86-.29-2.18-.71-4.53-1.27-7.05-.56-2.52-1.18-5.14-1.9-7.8-.47-1.75-.98-3.5-1.46-5.26-.49-1.75-1.03-3.45-1.58-5.06-1.27-4.15-2.51-7.66-3.69-10.55-1.2-2.87-2.04-4.31-2.54-4.31s-1.35,1.44-2.57,4.31c-1.24,2.89-2.52,6.4-3.85,10.55-.57,1.6-1.11,3.31-1.63,5.06-.52,1.76-1.03,3.51-1.53,5.26-.7,2.66-1.35,5.28-1.95,7.8-.6,2.53-1.04,4.87-1.31,7.05-1.05,7.38-1.76,12.99-2.11,16.86h-4.21Z"/>
    <path class="st1" d="M365.65,85.54V18.12h-2.11v-2.11h12.64v2.11h-2.11v63.22h10.52c5.85,0,10.1-.34,12.82-1,2.71-.66,4.58-1.38,5.63-2.16.64-.49,1.07-.97,1.32-1.41.26-.46.44-.83.58-1.12.07-.2.15-.36.26-.48.12-.1.26-.15.48-.15h2.11c-.36,1.05-.65,1.95-.91,2.69-.24.72-.51,1.37-.79,1.94-.14.43-.31.8-.52,1.16-.21.35-.42.7-.64,1.05-.42.5-.88,1.02-1.42,1.59-.53.56-1.22,1.26-2.05,2.1h-35.82Z"/>
    <path class="st1" d="M458.68,76.76c-3.91,4.24-10.26,6.96-19.04,8.15-.21,0-.44.02-.68.04-.24.04-.48.06-.67.06-.22,0-.46.02-.71.06-.24.04-.47.05-.68.05-.77,0-1.53-.05-2.31-.17-.78-.1-1.55-.22-2.32-.36-6.39-1.48-12.35-5.35-17.85-11.65-5.54-6.28-8.71-13.04-9.54-20.27-.06-.57-.13-1.13-.16-1.69-.03-.56-.06-1.12-.06-1.69,0-.21.02-.46.06-.74.03-.29.05-.55.05-.85,0-.27.02-.55.05-.84.04-.27.05-.52.05-.73.99-9.69,3.41-16.68,7.27-20.97,3.88-4.29,10.24-6.99,19.08-8.11h3.63c.31,0,.62.04.9.1,7.1.57,13.69,4.21,19.77,10.91,6.05,6.71,9.56,13.99,10.47,21.87.06.56.13,1.12.16,1.67.03.58.06,1.13.06,1.69v2.53c-1.14,9.69-3.64,16.67-7.53,20.92ZM417.88,23.81c-1.72.7-3.18,1.69-4.37,2.95-1.12,1.26-2.04,2.84-2.73,4.73-.72,1.91-1.06,3.98-1.06,6.21,0,2.68.48,5.58,1.42,8.7.95,3.12,2.37,6.32,4.27,9.55.92,1.61,1.99,3.21,3.22,4.84,1.22,1.61,2.56,3.2,3.95,4.73,1.47,1.61,2.96,3.12,4.47,4.47,1.51,1.38,3.04,2.59,4.58,3.65,2.75,1.89,5.48,3.34,8.23,4.32,2.74.98,5.26,1.46,7.58,1.46,2.05,0,3.91-.38,5.59-1.16,1.69-.76,3.06-1.79,4.1-3.06,1.21-1.26,2.11-2.85,2.69-4.77.6-1.95.9-4.06.9-6.38,0-2.53-.39-5.27-1.15-8.22-.78-2.96-1.96-5.94-3.57-8.96-.92-1.76-1.98-3.5-3.16-5.26-1.2-1.75-2.58-3.48-4.11-5.16-1.42-1.54-2.84-2.96-4.33-4.22-1.47-1.26-2.94-2.41-4.43-3.48-2.94-2.04-5.85-3.53-8.67-4.53-2.86-.97-5.47-1.46-7.85-1.46-1.98,0-3.83.35-5.55,1.05Z"/>
    <path class="st1" d="M167.67,56.15c-3.3-3.08-7.26-5.94-11.91-8.53-.7-.42-1.38-.86-2.05-1.31-.67-.47-1.39-.94-2.16-1.43-2.46-1.75-4.82-3.74-7.11-5.95-2.28-2.22-3.88-4.48-4.8-6.79-.2-.57-.37-1.15-.52-1.76-.15-.59-.21-1.17-.21-1.73,0-2.67.96-4.74,2.9-6.22,1.92-1.47,4.48-2.21,7.64-2.21,1.61,0,2.87.45,3.79,1.32.91.88,1.82,1.82,2.67,2.82.25.3.49.57.71.83,1.12,1.41,1.91,2.65,2.75,3.72,1.32,1.69,4,2.77,7.02,1.2,3.01-1.57.41-5.2.41-5.2-4.5-5.78-11.85-7.9-11.85-7.9h0c-.25-.09-.51-.18-.76-.26-.85-.2-1.68-.38-2.47-.52-.82-.15-1.57-.22-2.27-.22-4.22,0-7.73,1.41-10.54,4.21-2.81,2.8-4.22,6.31-4.22,10.54s.83,7.79,2.45,10.75c1.6,2.95,4.3,5.69,8.09,8.21,1.12.78,2.39,1.54,3.79,2.32,1.42.76,2.81,1.58,4.23,2.42,3.3,1.89,6.3,3.85,9,5.84,2.7,2,4.07,4.08,4.07,6.27,0,3.16-1.06,6.06-3.17,8.7-2.1,2.63-5.26,3.95-9.48,3.95s-8.01-1.65-11.36-4.97c-3.37-3.29-5.91-7.26-7.6-11.89l-2.1,8.42c1.27,3.11,2.66,5.56,4.22,7.39,1.62,1.83,3.77,3.5,6.48,5.06,2.7,1.54,6.17,2.32,10.37,2.32,8.44,0,13.71-1.5,15.82-4.47,2.1-3,3.16-7.12,3.16-12.39s-1.66-9.43-4.95-12.54Z"/>
  </g>
</svg>